# xmcd CD database file generated by Grip 3.2.0
# 
# Track frame offsets:
#       150
#       21731
#       42828
#       65006
#       87758
#       110653
#       132398
#       155435
#       179053
#       201516
# 
# Disc length: 2984 seconds
# 
# Revision: 1
# Processed by: cddbd v1.5.2PL0 Copyright (c) Steve Scherf et al.
# Submitted via: Grip 3.2.0
# 
DISCID=980ba60a
DTITLE=Proof Soul Project - Under Cover Of The House
DYEAR=1900
DGENRE=Alternative
TTITLE0=Rock With You
TTITLE1=Your Are The Universe
TTITLE2=Now You're Not Here
TTITLE3=This Is The Right Time
TTITLE4=I'm Every Woman
TTITLE5=LALA Means I Love You
TTITLE6=Space Cowboy
TTITLE7=Sweet Child O' Mine
TTITLE8=Don't You Worry 'bout A Thing
TTITLE9=Where The Streets Have No Name
EXTD=
EXTT0=
EXTT1=
EXTT2=
EXTT3=
EXTT4=
EXTT5=
EXTT6=
EXTT7=
EXTT8=
EXTT9=
PLAYORDER=
